<mxfile host="app.diagrams.net" modified="2023-09-01T08:34:24.123Z" agent="Mozilla/5.0 (Windows NT 10.0; Win64; x64) AppleWebKit/537.36 (KHTML, like Gecko) Chrome/116.0.0.0 Safari/537.36 Edg/116.0.1938.62" etag="RHNVWhQyjxgSg3ltYar0" version="21.7.0" type="github">
  <diagram name="第 1 页" id="2Kp2IsGIeOANgpGV9u3z">
    <mxGraphModel dx="2289" dy="106" grid="1" gridSize="10" guides="1" tooltips="1" connect="1" arrows="1" fold="1" page="1" pageScale="1" pageWidth="827" pageHeight="1169" math="0" shadow="0">
      <root>
        <mxCell id="0" />
        <mxCell id="1" parent="0" />
        <mxCell id="12ae3frHGvqBDCMUcqmj-2" value="" style="rounded=1;whiteSpace=wrap;html=1;strokeColor=none;fillColor=#BAC8D3;fontSize=24;fontColor=#23445D;align=center;opacity=60;" parent="1" vertex="1">
          <mxGeometry x="874" y="2065.25" width="340" height="180" as="geometry" />
        </mxCell>
        <mxCell id="12ae3frHGvqBDCMUcqmj-35" value="" style="rounded=1;whiteSpace=wrap;html=1;strokeColor=none;fillColor=#BAC8D3;fontSize=24;fontColor=#23445D;align=center;opacity=60;" parent="1" vertex="1">
          <mxGeometry x="1100" y="1552" width="270" height="180" as="geometry" />
        </mxCell>
        <mxCell id="MnokS-IEu5R2xWXdPz0--38" value="" style="rounded=1;whiteSpace=wrap;html=1;strokeColor=none;fillColor=#BAC8D3;fontSize=24;fontColor=#23445D;align=center;opacity=60;" parent="1" vertex="1">
          <mxGeometry x="644" y="1430" width="287" height="228" as="geometry" />
        </mxCell>
        <mxCell id="MnokS-IEu5R2xWXdPz0--27" value="" style="rounded=1;whiteSpace=wrap;html=1;strokeColor=none;fillColor=#BAC8D3;fontSize=24;fontColor=#23445D;align=center;opacity=60;" parent="1" vertex="1">
          <mxGeometry x="90" y="2630" width="610" height="160" as="geometry" />
        </mxCell>
        <mxCell id="12ae3frHGvqBDCMUcqmj-13" style="rounded=1;orthogonalLoop=1;jettySize=auto;html=1;exitX=0.5;exitY=0;exitDx=0;exitDy=0;entryX=0.5;entryY=0.98;entryDx=0;entryDy=0;entryPerimeter=0;strokeColor=#468CAA;strokeWidth=4;endArrow=none;endFill=0;" parent="1" source="12ae3frHGvqBDCMUcqmj-60" target="12ae3frHGvqBDCMUcqmj-56" edge="1">
          <mxGeometry relative="1" as="geometry" />
        </mxCell>
        <mxCell id="12ae3frHGvqBDCMUcqmj-24" style="rounded=1;orthogonalLoop=1;jettySize=auto;html=1;strokeWidth=4;strokeColor=#468CAA;endArrow=none;endFill=0;shape=link;" parent="1" source="v-_Acl9JAOwQYNVZAOyV-3" target="12ae3frHGvqBDCMUcqmj-64" edge="1">
          <mxGeometry relative="1" as="geometry">
            <mxPoint x="960" y="1800" as="sourcePoint" />
          </mxGeometry>
        </mxCell>
        <mxCell id="12ae3frHGvqBDCMUcqmj-33" style="rounded=1;orthogonalLoop=1;jettySize=auto;html=1;endArrow=none;endFill=0;strokeWidth=4;strokeColor=#468CAA;shape=link;" parent="1" source="MnokS-IEu5R2xWXdPz0--21" target="12ae3frHGvqBDCMUcqmj-18" edge="1">
          <mxGeometry relative="1" as="geometry">
            <mxPoint x="1282" y="1648.25" as="sourcePoint" />
          </mxGeometry>
        </mxCell>
        <mxCell id="12ae3frHGvqBDCMUcqmj-49" value="&lt;p style=&quot;margin-top: 0pt; margin-bottom: 0pt; margin-left: 0in; direction: ltr; unicode-bidi: embed; word-break: normal; font-size: 23px;&quot;&gt;&lt;/p&gt;&lt;p style=&quot;margin-top: 0pt; margin-bottom: 0pt; margin-left: 0in; direction: ltr; unicode-bidi: embed; word-break: normal;&quot;&gt;&lt;span style=&quot;background-color: initial; font-size: 18pt; color: rgb(0, 0, 0);&quot;&gt;林口/華亞/中和/文三三街/新竹&lt;/span&gt;&lt;/p&gt;" style="shape=mxgraph.cisco.storage.cloud;html=1;dashed=0;strokeColor=#23445D;fillColor=#ffffff;strokeWidth=2;fontFamily=Helvetica;fontSize=24;fontColor=#23445D;align=center;fontStyle=1" parent="1" vertex="1">
          <mxGeometry x="152" y="1285" width="408" height="125" as="geometry" />
        </mxCell>
        <mxCell id="12ae3frHGvqBDCMUcqmj-50" style="rounded=1;orthogonalLoop=1;jettySize=auto;html=1;strokeColor=#468CAA;strokeWidth=4;endArrow=none;endFill=0;elbow=vertical;" parent="1" source="FHWAyMyx4tsviVWadhPC-15" target="12ae3frHGvqBDCMUcqmj-49" edge="1">
          <mxGeometry relative="1" as="geometry">
            <mxPoint x="872.7300000000005" y="1762.25" as="sourcePoint" />
            <mxPoint x="432.2000000000003" y="1517.7500000000002" as="targetPoint" />
          </mxGeometry>
        </mxCell>
        <mxCell id="12ae3frHGvqBDCMUcqmj-51" value="&lt;p style=&quot;margin-top: 0pt; margin-bottom: 0pt; margin-left: 0in; direction: ltr; unicode-bidi: embed; word-break: normal; font-size: 24px;&quot;&gt;&lt;br&gt;&lt;/p&gt;" style="text;html=1;align=center;verticalAlign=middle;resizable=0;points=[];autosize=1;strokeColor=none;fillColor=none;" parent="1" vertex="1">
          <mxGeometry x="675.5" y="1938.25" width="20" height="40" as="geometry" />
        </mxCell>
        <mxCell id="12ae3frHGvqBDCMUcqmj-52" style="rounded=0;orthogonalLoop=1;jettySize=auto;html=1;strokeColor=#468CAA;strokeWidth=4;endArrow=none;endFill=0;shape=link;" parent="1" source="v-_Acl9JAOwQYNVZAOyV-5" target="12ae3frHGvqBDCMUcqmj-64" edge="1">
          <mxGeometry relative="1" as="geometry">
            <mxPoint x="1044.9999999999998" y="2222.25" as="sourcePoint" />
          </mxGeometry>
        </mxCell>
        <mxCell id="12ae3frHGvqBDCMUcqmj-53" style="rounded=1;orthogonalLoop=1;jettySize=auto;html=1;strokeColor=#468CAA;strokeWidth=4;endArrow=none;endFill=0;" parent="1" source="FHWAyMyx4tsviVWadhPC-14" target="12ae3frHGvqBDCMUcqmj-30" edge="1">
          <mxGeometry relative="1" as="geometry">
            <mxPoint x="720" y="1400" as="targetPoint" />
          </mxGeometry>
        </mxCell>
        <mxCell id="12ae3frHGvqBDCMUcqmj-54" value="&lt;p style=&quot;margin-top: 0pt; margin-bottom: 0pt; margin-left: 0in; direction: ltr; unicode-bidi: embed; word-break: normal; font-size: 23px;&quot;&gt;&lt;/p&gt;&lt;p style=&quot;border-color: var(--border-color); color: rgb(0, 0, 0); font-weight: 400; margin-top: 0pt; margin-bottom: 0pt; margin-left: 0in; direction: ltr; unicode-bidi: embed; word-break: normal;&quot;&gt;&lt;font style=&quot;border-color: var(--border-color);&quot;&gt;VX1200&lt;/font&gt;&lt;/p&gt;&lt;p style=&quot;border-color: var(--border-color); color: rgb(0, 0, 0); font-weight: 400; margin-top: 0pt; margin-bottom: 0pt; margin-left: 0in; direction: ltr; unicode-bidi: embed; word-break: normal;&quot;&gt;&lt;font style=&quot;border-color: var(--border-color);&quot;&gt;Lync to&amp;nbsp;&lt;span style=&quot;border-color: var(--border-color); font-family: 微軟正黑體;&quot;&gt;手機、市話&lt;/span&gt;&lt;/font&gt;&lt;/p&gt;" style="shape=mxgraph.cisco.storage.cloud;html=1;dashed=0;strokeColor=#23445D;fillColor=#ffffff;strokeWidth=2;fontFamily=Helvetica;fontSize=24;fontColor=#23445D;align=center;fontStyle=1" parent="1" vertex="1">
          <mxGeometry x="1110" y="1220" width="272" height="125" as="geometry" />
        </mxCell>
        <mxCell id="12ae3frHGvqBDCMUcqmj-55" value="" style="group" parent="1" vertex="1" connectable="0">
          <mxGeometry x="656.75" y="1946" width="124.5" height="83" as="geometry" />
        </mxCell>
        <mxCell id="12ae3frHGvqBDCMUcqmj-56" value="" style="shape=mxgraph.cisco.switches.workgroup_switch;sketch=0;html=1;pointerEvents=1;dashed=0;fillColor=#036897;strokeColor=#ffffff;strokeWidth=2;verticalLabelPosition=bottom;verticalAlign=top;align=center;outlineConnect=0;aspect=fixed;" parent="12ae3frHGvqBDCMUcqmj-55" vertex="1">
          <mxGeometry x="12.25" width="100" height="49.5" as="geometry" />
        </mxCell>
        <mxCell id="12ae3frHGvqBDCMUcqmj-57" value="3 com switch&lt;br style=&quot;font-size: 12px;&quot;&gt;IP: 192.168.1.248/249" style="text;html=1;strokeColor=none;fillColor=none;align=center;verticalAlign=middle;whiteSpace=wrap;rounded=0;fontSize=12;" parent="12ae3frHGvqBDCMUcqmj-55" vertex="1">
          <mxGeometry y="53" width="124.5" height="30" as="geometry" />
        </mxCell>
        <mxCell id="12ae3frHGvqBDCMUcqmj-58" style="rounded=1;orthogonalLoop=1;jettySize=auto;html=1;strokeColor=#468CAA;strokeWidth=4;endArrow=none;endFill=0;shape=link;" parent="1" source="12ae3frHGvqBDCMUcqmj-56" target="12ae3frHGvqBDCMUcqmj-18" edge="1">
          <mxGeometry relative="1" as="geometry" />
        </mxCell>
        <mxCell id="12ae3frHGvqBDCMUcqmj-59" value="" style="group" parent="1" vertex="1" connectable="0">
          <mxGeometry x="639" y="2065.25" width="160" height="180" as="geometry" />
        </mxCell>
        <mxCell id="12ae3frHGvqBDCMUcqmj-60" value="" style="rounded=1;whiteSpace=wrap;html=1;strokeColor=none;fillColor=#BAC8D3;fontSize=24;fontColor=#23445D;align=center;opacity=60;" parent="12ae3frHGvqBDCMUcqmj-59" vertex="1">
          <mxGeometry width="160" height="180" as="geometry" />
        </mxCell>
        <mxCell id="12ae3frHGvqBDCMUcqmj-61" value="&lt;font color=&quot;#23445d&quot;&gt;&amp;nbsp;HQ User Group&lt;/font&gt;" style="rounded=1;whiteSpace=wrap;html=1;strokeColor=none;fillColor=none;fontSize=14;fontColor=#742B21;align=center;fontStyle=1" parent="12ae3frHGvqBDCMUcqmj-59" vertex="1">
          <mxGeometry x="11.75" y="20" width="143" height="19" as="geometry" />
        </mxCell>
        <mxCell id="12ae3frHGvqBDCMUcqmj-62" value="" style="shape=mxgraph.cisco.computers_and_peripherals.macintosh;sketch=0;html=1;pointerEvents=1;dashed=0;fillColor=#036897;strokeColor=#ffffff;strokeWidth=2;verticalLabelPosition=bottom;verticalAlign=top;align=center;outlineConnect=0;" parent="12ae3frHGvqBDCMUcqmj-59" vertex="1">
          <mxGeometry x="33.75" y="70" width="99" height="64" as="geometry" />
        </mxCell>
        <mxCell id="12ae3frHGvqBDCMUcqmj-63" value="" style="group" parent="1" vertex="1" connectable="0">
          <mxGeometry x="989" y="1782.25" width="110" height="120" as="geometry" />
        </mxCell>
        <mxCell id="12ae3frHGvqBDCMUcqmj-64" value="" style="shape=mxgraph.cisco.switches.layer_3_switch;sketch=0;html=1;pointerEvents=1;dashed=0;fillColor=#036897;strokeColor=#ffffff;strokeWidth=2;verticalLabelPosition=bottom;verticalAlign=top;align=center;outlineConnect=0;aspect=fixed;" parent="12ae3frHGvqBDCMUcqmj-63" vertex="1">
          <mxGeometry x="10.5" width="89" height="89" as="geometry" />
        </mxCell>
        <mxCell id="12ae3frHGvqBDCMUcqmj-65" value="Cisco 3560X&lt;br&gt;IP: 192.168.1.251" style="text;html=1;strokeColor=none;fillColor=none;align=center;verticalAlign=middle;whiteSpace=wrap;rounded=0;" parent="12ae3frHGvqBDCMUcqmj-63" vertex="1">
          <mxGeometry y="90" width="110" height="30" as="geometry" />
        </mxCell>
        <mxCell id="12ae3frHGvqBDCMUcqmj-66" style="rounded=1;orthogonalLoop=1;jettySize=auto;html=1;strokeColor=#468CAA;strokeWidth=4;endArrow=none;endFill=0;" parent="1" source="FHWAyMyx4tsviVWadhPC-5" target="12ae3frHGvqBDCMUcqmj-30" edge="1">
          <mxGeometry relative="1" as="geometry">
            <mxPoint x="1182" y="1508.25" as="targetPoint" />
          </mxGeometry>
        </mxCell>
        <mxCell id="12ae3frHGvqBDCMUcqmj-69" value="&lt;p style=&quot;margin-top: 0pt; margin-bottom: 0pt; margin-left: 0in; direction: ltr; unicode-bidi: embed; word-break: normal; font-size: 23px;&quot;&gt;&lt;/p&gt;&lt;p style=&quot;margin-top: 0pt; margin-bottom: 0pt; margin-left: 0in; direction: ltr; unicode-bidi: embed; word-break: normal;&quot;&gt;&lt;font style=&quot;background-color: initial;&quot; color=&quot;#000000&quot;&gt;&lt;span style=&quot;font-size: 18pt; font-family: 微軟正黑體;&quot;&gt;浩興昆山&lt;/span&gt;&lt;/font&gt;&lt;br&gt;&lt;/p&gt;&lt;p style=&quot;margin-top: 0pt; margin-bottom: 0pt; margin-left: 0in; direction: ltr; unicode-bidi: embed; word-break: normal;&quot;&gt;&lt;span style=&quot;font-family: 微軟正黑體; font-size: 18pt; color: rgb(0, 0, 0); background-color: initial;&quot;&gt;浩興深圳&lt;/span&gt;&lt;/p&gt;&lt;p style=&quot;margin-top: 0pt; margin-bottom: 0pt; margin-left: 0in; direction: ltr; unicode-bidi: embed; word-break: normal;&quot;&gt;&lt;span style=&quot;color: rgb(0, 0, 0); background-color: initial; font-size: 18pt; font-family: 微軟正黑體;&quot;&gt;深圳耕興&lt;/span&gt;&lt;br&gt;&lt;/p&gt;" style="shape=mxgraph.cisco.storage.cloud;html=1;dashed=0;strokeColor=#23445D;fillColor=#ffffff;strokeWidth=2;fontFamily=Helvetica;fontSize=24;fontColor=#23445D;align=center;fontStyle=1" parent="1" vertex="1">
          <mxGeometry x="12.000000000000007" y="1535.5000000000002" width="210" height="156.97" as="geometry" />
        </mxCell>
        <mxCell id="12ae3frHGvqBDCMUcqmj-72" value="&lt;p style=&quot;margin-top: 0pt; margin-bottom: 0pt; margin-left: 0in; direction: ltr; unicode-bidi: embed; word-break: normal; font-size: 23px;&quot;&gt;&lt;/p&gt;&lt;p style=&quot;margin-top: 0pt; margin-bottom: 0pt; margin-left: 0in; direction: ltr; unicode-bidi: embed; word-break: normal;&quot;&gt;&lt;font color=&quot;#000000&quot;&gt;Internet&lt;/font&gt;&lt;/p&gt;" style="shape=mxgraph.cisco.storage.cloud;html=1;dashed=0;strokeColor=#23445D;fillColor=#ffffff;strokeWidth=2;fontFamily=Helvetica;fontSize=24;fontColor=#23445D;align=center;fontStyle=1" parent="1" vertex="1">
          <mxGeometry x="624" y="1220" width="190" height="125" as="geometry" />
        </mxCell>
        <mxCell id="12ae3frHGvqBDCMUcqmj-73" style="rounded=1;orthogonalLoop=1;jettySize=auto;html=1;strokeColor=#468CAA;endArrow=none;endFill=0;strokeWidth=4;" parent="1" source="12ae3frHGvqBDCMUcqmj-30" target="12ae3frHGvqBDCMUcqmj-72" edge="1">
          <mxGeometry relative="1" as="geometry">
            <mxPoint x="1502" y="1598.25" as="targetPoint" />
          </mxGeometry>
        </mxCell>
        <mxCell id="MnokS-IEu5R2xWXdPz0--6" value="" style="rounded=1;orthogonalLoop=1;jettySize=auto;html=1;endArrow=none;endFill=0;strokeWidth=4;strokeColor=#468CAA;" parent="1" source="12ae3frHGvqBDCMUcqmj-30" target="MnokS-IEu5R2xWXdPz0--5" edge="1">
          <mxGeometry relative="1" as="geometry">
            <mxPoint x="902" y="1548.25" as="sourcePoint" />
            <mxPoint x="970" y="1762.25" as="targetPoint" />
          </mxGeometry>
        </mxCell>
        <mxCell id="MnokS-IEu5R2xWXdPz0--5" value="" style="sketch=0;points=[[0.015,0.015,0],[0.985,0.015,0],[0.985,0.985,0],[0.015,0.985,0],[0.25,0,0],[0.5,0,0],[0.75,0,0],[1,0.25,0],[1,0.5,0],[1,0.75,0],[0.75,1,0],[0.5,1,0],[0.25,1,0],[0,0.75,0],[0,0.5,0],[0,0.25,0]];verticalLabelPosition=bottom;html=1;verticalAlign=top;aspect=fixed;align=center;pointerEvents=1;shape=mxgraph.cisco19.rect;prIcon=ips_ids;fillColor=#FAFAFA;strokeColor=#005073;" parent="1" vertex="1">
          <mxGeometry x="687" y="1581" width="64" height="50" as="geometry" />
        </mxCell>
        <mxCell id="12ae3frHGvqBDCMUcqmj-29" value="" style="group" parent="1" vertex="1" connectable="0">
          <mxGeometry x="666.5" y="1447.69" width="105" height="112" as="geometry" />
        </mxCell>
        <mxCell id="12ae3frHGvqBDCMUcqmj-30" value="" style="sketch=0;points=[[0.015,0.015,0],[0.985,0.015,0],[0.985,0.985,0],[0.015,0.985,0],[0.25,0,0],[0.5,0,0],[0.75,0,0],[1,0.25,0],[1,0.5,0],[1,0.75,0],[0.75,1,0],[0.5,1,0],[0.25,1,0],[0,0.75,0],[0,0.5,0],[0,0.25,0]];verticalLabelPosition=bottom;html=1;verticalAlign=top;aspect=fixed;align=center;pointerEvents=1;shape=mxgraph.cisco19.rect;prIcon=firewall;fillColor=#FAFAFA;strokeColor=#005073;container=0;" parent="12ae3frHGvqBDCMUcqmj-29" vertex="1">
          <mxGeometry x="0.5" width="102.4" height="80" as="geometry" />
        </mxCell>
        <mxCell id="12ae3frHGvqBDCMUcqmj-31" value="Fortinet 201&lt;br&gt;192.168.1.30" style="text;html=1;strokeColor=none;fillColor=none;align=center;verticalAlign=middle;whiteSpace=wrap;rounded=0;" parent="12ae3frHGvqBDCMUcqmj-29" vertex="1">
          <mxGeometry y="82" width="105" height="30" as="geometry" />
        </mxCell>
        <mxCell id="MnokS-IEu5R2xWXdPz0--9" value="" style="rounded=1;orthogonalLoop=1;jettySize=auto;html=1;endArrow=none;endFill=0;strokeColor=#468CAA;strokeWidth=4;" parent="1" source="v-_Acl9JAOwQYNVZAOyV-1" target="MnokS-IEu5R2xWXdPz0--17" edge="1">
          <mxGeometry relative="1" as="geometry">
            <mxPoint x="280" y="1570" as="sourcePoint" />
            <mxPoint x="223.67773248728827" y="1688" as="targetPoint" />
          </mxGeometry>
        </mxCell>
        <mxCell id="MnokS-IEu5R2xWXdPz0--10" value="" style="rounded=1;orthogonalLoop=1;jettySize=auto;html=1;strokeColor=#468CAA;strokeWidth=4;endArrow=none;endFill=0;" parent="1" source="12ae3frHGvqBDCMUcqmj-54" target="FHWAyMyx4tsviVWadhPC-14" edge="1">
          <mxGeometry relative="1" as="geometry">
            <mxPoint x="603" y="1784.25" as="targetPoint" />
            <mxPoint x="208" y="1653.25" as="sourcePoint" />
          </mxGeometry>
        </mxCell>
        <mxCell id="FHWAyMyx4tsviVWadhPC-14" value="遠傳" style="text;html=1;align=center;verticalAlign=middle;resizable=0;points=[];autosize=1;strokeColor=none;fillColor=none;" parent="1" vertex="1">
          <mxGeometry x="952" y="1374" width="50" height="30" as="geometry" />
        </mxCell>
        <mxCell id="MnokS-IEu5R2xWXdPz0--11" value="" style="rounded=1;orthogonalLoop=1;jettySize=auto;html=1;strokeColor=#468CAA;strokeWidth=4;endArrow=none;endFill=0;elbow=vertical;" parent="1" source="MnokS-IEu5R2xWXdPz0--17" target="FHWAyMyx4tsviVWadhPC-15" edge="1">
          <mxGeometry relative="1" as="geometry">
            <mxPoint x="608.7300000000005" y="1762.25" as="sourcePoint" />
            <mxPoint x="168.20000000000027" y="1517.7500000000002" as="targetPoint" />
          </mxGeometry>
        </mxCell>
        <mxCell id="FHWAyMyx4tsviVWadhPC-15" value="是方/遠傳專線" style="text;html=1;align=center;verticalAlign=middle;resizable=0;points=[];autosize=1;strokeColor=none;fillColor=none;" parent="1" vertex="1">
          <mxGeometry x="306" y="1551" width="100" height="30" as="geometry" />
        </mxCell>
        <mxCell id="MnokS-IEu5R2xWXdPz0--19" style="rounded=1;orthogonalLoop=1;jettySize=auto;html=1;strokeColor=#468CAA;strokeWidth=4;endArrow=none;endFill=0;shape=link;" parent="1" source="12ae3frHGvqBDCMUcqmj-27" target="12ae3frHGvqBDCMUcqmj-18" edge="1">
          <mxGeometry relative="1" as="geometry">
            <mxPoint x="350" y="1843.25" as="sourcePoint" />
            <mxPoint x="475" y="1856.25" as="targetPoint" />
          </mxGeometry>
        </mxCell>
        <mxCell id="MnokS-IEu5R2xWXdPz0--23" value="" style="rounded=1;orthogonalLoop=1;jettySize=auto;html=1;endArrow=none;endFill=0;strokeWidth=4;strokeColor=#468CAA;" parent="1" source="MnokS-IEu5R2xWXdPz0--5" target="MnokS-IEu5R2xWXdPz0--21" edge="1">
          <mxGeometry relative="1" as="geometry">
            <mxPoint x="908" y="1647.25" as="sourcePoint" />
            <mxPoint x="732" y="1774.25" as="targetPoint" />
          </mxGeometry>
        </mxCell>
        <mxCell id="MnokS-IEu5R2xWXdPz0--21" value="" style="shape=mxgraph.cisco.routers.router;sketch=0;html=1;pointerEvents=1;dashed=0;fillColor=#036897;strokeColor=#ffffff;strokeWidth=2;verticalLabelPosition=bottom;verticalAlign=top;align=center;outlineConnect=0;aspect=fixed;container=0;" parent="1" vertex="1">
          <mxGeometry x="676" y="1679.03" width="86" height="58.44" as="geometry" />
        </mxCell>
        <mxCell id="MnokS-IEu5R2xWXdPz0--25" value="" style="sketch=0;points=[[0.015,0.015,0],[0.985,0.015,0],[0.985,0.985,0],[0.015,0.985,0],[0.25,0,0],[0.5,0,0],[0.75,0,0],[1,0.25,0],[1,0.5,0],[1,0.75,0],[0.75,1,0],[0.5,1,0],[0.25,1,0],[0,0.75,0],[0,0.5,0],[0,0.25,0]];verticalLabelPosition=bottom;html=1;verticalAlign=top;aspect=fixed;align=center;pointerEvents=1;shape=mxgraph.cisco19.rect;prIcon=ips_ids;fillColor=#FAFAFA;strokeColor=#005073;" parent="1" vertex="1">
          <mxGeometry x="197" y="2700" width="64" height="50" as="geometry" />
        </mxCell>
        <mxCell id="MnokS-IEu5R2xWXdPz0--26" value="" style="shape=mxgraph.cisco.routers.router;sketch=0;html=1;pointerEvents=1;dashed=0;fillColor=#036897;strokeColor=#ffffff;strokeWidth=2;verticalLabelPosition=bottom;verticalAlign=top;align=center;outlineConnect=0;aspect=fixed;container=0;" parent="1" vertex="1">
          <mxGeometry x="290" y="2691.56" width="86" height="58.44" as="geometry" />
        </mxCell>
        <mxCell id="MnokS-IEu5R2xWXdPz0--28" value="&lt;font style=&quot;font-size: 20px;&quot;&gt;添購設備&lt;/font&gt;" style="text;html=1;align=center;verticalAlign=middle;resizable=0;points=[];autosize=1;strokeColor=none;fillColor=none;" parent="1" vertex="1">
          <mxGeometry x="120" y="2651.56" width="100" height="40" as="geometry" />
        </mxCell>
        <mxCell id="MnokS-IEu5R2xWXdPz0--29" value="IPS" style="text;html=1;strokeColor=none;fillColor=none;align=center;verticalAlign=middle;whiteSpace=wrap;rounded=0;" parent="1" vertex="1">
          <mxGeometry x="173" y="2750" width="105" height="30" as="geometry" />
        </mxCell>
        <mxCell id="MnokS-IEu5R2xWXdPz0--30" value="Router" style="text;html=1;strokeColor=none;fillColor=none;align=center;verticalAlign=middle;whiteSpace=wrap;rounded=0;" parent="1" vertex="1">
          <mxGeometry x="278" y="2750" width="105" height="30" as="geometry" />
        </mxCell>
        <mxCell id="MnokS-IEu5R2xWXdPz0--31" value="" style="group;points=[[0,0,0,0,0],[0,0.25,0,0,0],[0,0.5,0,0,0],[0,0.75,0,0,0],[0,1,0,0,0],[0.25,0,0,0,0],[0.25,1,0,0,0],[0.5,0,0,0,0],[0.5,1,0,0,0],[0.75,0,0,0,0],[0.75,1,0,0,0],[1,0,0,0,0],[1,0.25,0,0,0],[1,0.5,0,0,0],[1,0.75,0,0,0],[1,1,0,0,0]];" parent="1" vertex="1" connectable="0">
          <mxGeometry x="400" y="2670" width="110" height="120" as="geometry" />
        </mxCell>
        <mxCell id="MnokS-IEu5R2xWXdPz0--32" value="" style="shape=mxgraph.cisco.switches.layer_3_switch;sketch=0;html=1;pointerEvents=1;dashed=0;fillColor=#036897;strokeColor=#ffffff;strokeWidth=2;verticalLabelPosition=bottom;verticalAlign=top;align=center;outlineConnect=0;aspect=fixed;points=[[0,0.25,0,0,0],[0,0.5,0,0,0],[0,0.76,0,0,0],[0,1,0,0,0],[0.07,0,0,0,0],[0.29,0,0,0,0],[0.5,0,0,0,0],[0.5,1,0,0,0],[0.75,0,0,0,0],[0.95,0.94,0,0,0],[1,0,0,0,0],[1,0.5,0,0,0]];" parent="MnokS-IEu5R2xWXdPz0--31" vertex="1">
          <mxGeometry x="10.5" width="89" height="89" as="geometry" />
        </mxCell>
        <mxCell id="MnokS-IEu5R2xWXdPz0--33" value="core Switch" style="text;html=1;strokeColor=none;fillColor=none;align=center;verticalAlign=middle;whiteSpace=wrap;rounded=0;" parent="MnokS-IEu5R2xWXdPz0--31" vertex="1">
          <mxGeometry y="90" width="110" height="30" as="geometry" />
        </mxCell>
        <mxCell id="MnokS-IEu5R2xWXdPz0--40" value="" style="rounded=1;orthogonalLoop=1;jettySize=auto;html=1;endArrow=none;endFill=0;strokeWidth=4;strokeColor=#468CAA;shape=link;" parent="1" source="MnokS-IEu5R2xWXdPz0--64" target="MnokS-IEu5R2xWXdPz0--21" edge="1">
          <mxGeometry relative="1" as="geometry">
            <mxPoint x="1044" y="1707.25" as="sourcePoint" />
            <mxPoint x="900" y="1700" as="targetPoint" />
          </mxGeometry>
        </mxCell>
        <mxCell id="MnokS-IEu5R2xWXdPz0--44" value="" style="group" parent="1" vertex="1" connectable="0">
          <mxGeometry x="954" y="1617.46" width="105" height="75.01000000000022" as="geometry" />
        </mxCell>
        <mxCell id="MnokS-IEu5R2xWXdPz0--41" value="WAF" style="text;html=1;strokeColor=none;fillColor=none;align=center;verticalAlign=middle;whiteSpace=wrap;rounded=0;" parent="MnokS-IEu5R2xWXdPz0--44" vertex="1">
          <mxGeometry y="45.01000000000022" width="105" height="30" as="geometry" />
        </mxCell>
        <mxCell id="MnokS-IEu5R2xWXdPz0--45" value="" style="group" parent="1" vertex="1" connectable="0">
          <mxGeometry x="530" y="2690" width="105" height="75.01000000000022" as="geometry" />
        </mxCell>
        <mxCell id="MnokS-IEu5R2xWXdPz0--46" value="" style="sketch=0;points=[[0.015,0.015,0],[0.985,0.015,0],[0.985,0.985,0],[0.015,0.985,0],[0.25,0,0],[0.5,0,0],[0.75,0,0],[1,0.25,0],[1,0.5,0],[1,0.75,0],[0.75,1,0],[0.5,1,0],[0.25,1,0],[0,0.75,0],[0,0.5,0],[0,0.25,0]];verticalLabelPosition=bottom;html=1;verticalAlign=top;aspect=fixed;align=center;pointerEvents=1;shape=mxgraph.cisco19.rect;prIcon=web_application_firewall;fillColor=#FAFAFA;strokeColor=#005073;" parent="MnokS-IEu5R2xWXdPz0--45" vertex="1">
          <mxGeometry x="20.5" width="64" height="50" as="geometry" />
        </mxCell>
        <mxCell id="MnokS-IEu5R2xWXdPz0--47" value="WAF" style="text;html=1;strokeColor=none;fillColor=none;align=center;verticalAlign=middle;whiteSpace=wrap;rounded=0;" parent="MnokS-IEu5R2xWXdPz0--45" vertex="1">
          <mxGeometry y="45.01000000000022" width="105" height="30" as="geometry" />
        </mxCell>
        <mxCell id="MnokS-IEu5R2xWXdPz0--48" value="" style="rounded=1;orthogonalLoop=1;jettySize=auto;html=1;strokeColor=#468CAA;strokeWidth=4;endArrow=none;endFill=0;" parent="1" source="MnokS-IEu5R2xWXdPz0--57" target="FHWAyMyx4tsviVWadhPC-5" edge="1">
          <mxGeometry relative="1" as="geometry">
            <mxPoint x="1213.4285365853657" y="1391.5" as="sourcePoint" />
            <mxPoint x="246" y="2073.25" as="targetPoint" />
          </mxGeometry>
        </mxCell>
        <mxCell id="FHWAyMyx4tsviVWadhPC-5" value="Site to Site VPN" style="text;html=1;align=center;verticalAlign=middle;resizable=0;points=[];autosize=1;strokeColor=none;fillColor=none;" parent="1" vertex="1">
          <mxGeometry x="768.2500000000001" y="1374" width="110" height="30" as="geometry" />
        </mxCell>
        <mxCell id="MnokS-IEu5R2xWXdPz0--50" value="" style="rounded=1;orthogonalLoop=1;jettySize=auto;html=1;strokeColor=#468CAA;strokeWidth=4;endArrow=none;endFill=0;" parent="1" source="MnokS-IEu5R2xWXdPz0--17" target="12ae3frHGvqBDCMUcqmj-27" edge="1">
          <mxGeometry relative="1" as="geometry">
            <mxPoint x="474" y="1723.25" as="sourcePoint" />
            <mxPoint x="643" y="1804.25" as="targetPoint" />
          </mxGeometry>
        </mxCell>
        <mxCell id="MnokS-IEu5R2xWXdPz0--34" value="" style="rounded=1;whiteSpace=wrap;html=1;strokeColor=none;fillColor=#BAC8D3;fontSize=24;fontColor=#23445D;align=center;opacity=60;" parent="1" vertex="1">
          <mxGeometry x="90" y="2810" width="398" height="180" as="geometry" />
        </mxCell>
        <mxCell id="12ae3frHGvqBDCMUcqmj-21" value="" style="group" parent="1" vertex="1" connectable="0">
          <mxGeometry x="109.9975" y="2850" width="257.8125" height="135.7199999999998" as="geometry" />
        </mxCell>
        <mxCell id="12ae3frHGvqBDCMUcqmj-22" value="" style="sketch=0;points=[[0.015,0.015,0],[0.985,0.015,0],[0.985,0.985,0],[0.015,0.985,0],[0.25,0,0],[0.5,0,0],[0.75,0,0],[1,0.25,0],[1,0.5,0],[1,0.75,0],[0.75,1,0],[0.5,1,0],[0.25,1,0],[0,0.75,0],[0,0.5,0],[0,0.25,0]];verticalLabelPosition=bottom;html=1;verticalAlign=top;aspect=fixed;align=center;pointerEvents=1;shape=mxgraph.cisco19.rect;prIcon=l3_switch;fillColor=#FAFAFA;strokeColor=#005073;" parent="12ae3frHGvqBDCMUcqmj-21" vertex="1">
          <mxGeometry x="10.3125" width="80" height="80" as="geometry" />
        </mxCell>
        <mxCell id="MnokS-IEu5R2xWXdPz0--35" value="&lt;font style=&quot;font-size: 18px;&quot;&gt;移除&lt;/font&gt;" style="text;html=1;align=center;verticalAlign=middle;resizable=0;points=[];autosize=1;strokeColor=none;fillColor=none;" parent="12ae3frHGvqBDCMUcqmj-21" vertex="1">
          <mxGeometry x="30.9375" y="-40" width="60" height="40" as="geometry" />
        </mxCell>
        <mxCell id="12ae3frHGvqBDCMUcqmj-23" value="Dell 10G&lt;br&gt;IP: 192.168.X.X" style="text;html=1;strokeColor=none;fillColor=none;align=center;verticalAlign=middle;whiteSpace=wrap;rounded=0;" parent="1" vertex="1">
          <mxGeometry x="69.9975" y="2932" width="185.625" height="30" as="geometry" />
        </mxCell>
        <mxCell id="eVyLxdBei2JVoM4hP0GL-2" value="" style="group" parent="1" vertex="1" connectable="0">
          <mxGeometry x="239" y="2854.5" width="100" height="91" as="geometry" />
        </mxCell>
        <mxCell id="eVyLxdBei2JVoM4hP0GL-3" value="" style="shape=mxgraph.cisco.routers.router;sketch=0;html=1;pointerEvents=1;dashed=0;fillColor=#036897;strokeColor=#ffffff;strokeWidth=2;verticalLabelPosition=bottom;verticalAlign=top;align=center;outlineConnect=0;aspect=fixed;" parent="eVyLxdBei2JVoM4hP0GL-2" vertex="1">
          <mxGeometry x="7" width="86" height="58.44" as="geometry" />
        </mxCell>
        <mxCell id="eVyLxdBei2JVoM4hP0GL-4" value="Cisco 800&lt;br&gt;IP: 192.168.1.236" style="text;html=1;strokeColor=none;fillColor=none;align=center;verticalAlign=middle;whiteSpace=wrap;rounded=0;" parent="eVyLxdBei2JVoM4hP0GL-2" vertex="1">
          <mxGeometry y="61" width="100" height="30" as="geometry" />
        </mxCell>
        <mxCell id="MnokS-IEu5R2xWXdPz0--52" value="" style="group" parent="1" vertex="1" connectable="0">
          <mxGeometry x="303.5" y="1787.25" width="105" height="110" as="geometry" />
        </mxCell>
        <mxCell id="MnokS-IEu5R2xWXdPz0--17" value="" style="sketch=0;points=[[0.015,0.015,0],[0.985,0.015,0],[0.985,0.985,0],[0.015,0.985,0],[0.25,0,0],[0.5,0,0],[0.75,0,0],[1,0.25,0],[1,0.5,0],[1,0.75,0],[0.75,1,0],[0.5,1,0],[0.25,1,0],[0,0.75,0],[0,0.5,0],[0,0.25,0]];verticalLabelPosition=bottom;html=1;verticalAlign=top;aspect=fixed;align=center;pointerEvents=1;shape=mxgraph.cisco19.rect;prIcon=firewall;fillColor=#FAFAFA;strokeColor=#005073;container=0;" parent="MnokS-IEu5R2xWXdPz0--52" vertex="1">
          <mxGeometry x="1.1368683772161603e-13" width="102.4" height="80" as="geometry" />
        </mxCell>
        <mxCell id="12ae3frHGvqBDCMUcqmj-16" value="Juniper SSG-140&lt;br&gt;IP: 192.168.1.250" style="text;html=1;strokeColor=none;fillColor=none;align=center;verticalAlign=middle;whiteSpace=wrap;rounded=0;" parent="MnokS-IEu5R2xWXdPz0--52" vertex="1">
          <mxGeometry y="80" width="105" height="30" as="geometry" />
        </mxCell>
        <mxCell id="MnokS-IEu5R2xWXdPz0--53" value="" style="group" parent="1" vertex="1" connectable="0">
          <mxGeometry x="487" y="1798.0300000000002" width="100" height="88.44000000000005" as="geometry" />
        </mxCell>
        <mxCell id="12ae3frHGvqBDCMUcqmj-28" value="Cisco 2900&lt;br&gt;IP: 192.168.1.253" style="text;html=1;strokeColor=none;fillColor=none;align=center;verticalAlign=middle;whiteSpace=wrap;rounded=0;" parent="MnokS-IEu5R2xWXdPz0--53" vertex="1">
          <mxGeometry y="58.440000000000055" width="100" height="30" as="geometry" />
        </mxCell>
        <mxCell id="12ae3frHGvqBDCMUcqmj-27" value="" style="shape=mxgraph.cisco.routers.router;sketch=0;html=1;pointerEvents=1;dashed=0;fillColor=#036897;strokeColor=#ffffff;strokeWidth=2;verticalLabelPosition=bottom;verticalAlign=top;align=center;outlineConnect=0;aspect=fixed;" parent="MnokS-IEu5R2xWXdPz0--53" vertex="1">
          <mxGeometry x="7" width="86" height="58.44" as="geometry" />
        </mxCell>
        <mxCell id="MnokS-IEu5R2xWXdPz0--57" value="&lt;p style=&quot;margin-top: 0pt; margin-bottom: 0pt; margin-left: 0in; direction: ltr; unicode-bidi: embed; word-break: normal; font-size: 23px;&quot;&gt;&lt;/p&gt;&lt;p style=&quot;border-color: var(--border-color); margin-top: 0pt; margin-bottom: 0pt; margin-left: 0in; direction: ltr; unicode-bidi: embed; word-break: normal;&quot;&gt;美國/&lt;span style=&quot;background-color: initial; color: rgb(0, 0, 0); font-size: 18pt;&quot;&gt;福永/東莞&lt;/span&gt;&lt;/p&gt;" style="shape=mxgraph.cisco.storage.cloud;html=1;dashed=0;strokeColor=#23445D;fillColor=#ffffff;strokeWidth=2;fontFamily=Helvetica;fontSize=24;fontColor=#23445D;align=center;fontStyle=1" parent="1" vertex="1">
          <mxGeometry x="844.5" y="1220" width="235.5" height="125" as="geometry" />
        </mxCell>
        <mxCell id="MnokS-IEu5R2xWXdPz0--59" value="" style="group" parent="1" vertex="1" connectable="0">
          <mxGeometry x="799" y="1515.36" width="110" height="97.76999999999998" as="geometry" />
        </mxCell>
        <mxCell id="MnokS-IEu5R2xWXdPz0--55" value="&lt;font style=&quot;font-size: 20px;&quot;&gt;or NGFW&lt;/font&gt;" style="text;html=1;align=center;verticalAlign=middle;resizable=0;points=[];autosize=1;strokeColor=none;fillColor=none;" parent="MnokS-IEu5R2xWXdPz0--59" vertex="1">
          <mxGeometry y="57.76999999999998" width="110" height="40" as="geometry" />
        </mxCell>
        <mxCell id="MnokS-IEu5R2xWXdPz0--58" value="" style="verticalLabelPosition=bottom;sketch=0;html=1;fillColor=#282828;strokeColor=none;verticalAlign=top;pointerEvents=1;align=center;shape=mxgraph.cisco_safe.security_icons.ngfw;aspect=fixed;" parent="MnokS-IEu5R2xWXdPz0--59" vertex="1">
          <mxGeometry x="18.5" width="73" height="64.04" as="geometry" />
        </mxCell>
        <mxCell id="MnokS-IEu5R2xWXdPz0--61" value="" style="group" parent="1" vertex="1" connectable="0">
          <mxGeometry x="358" y="2842.23" width="105" height="115.53999999999996" as="geometry" />
        </mxCell>
        <mxCell id="MnokS-IEu5R2xWXdPz0--62" value="" style="shape=mxgraph.cisco.servers.fileserver;html=1;dashed=0;fillColor=#10739E;strokeColor=#ffffff;strokeWidth=2;verticalLabelPosition=bottom;verticalAlign=top;fontFamily=Helvetica;fontSize=36;fontColor=#FFB366;aspect=fixed;" parent="MnokS-IEu5R2xWXdPz0--61" vertex="1">
          <mxGeometry x="23" width="59" height="85.04" as="geometry" />
        </mxCell>
        <mxCell id="MnokS-IEu5R2xWXdPz0--63" value="TMG4SRV&lt;br&gt;IP: 192.168.1.25" style="text;html=1;strokeColor=none;fillColor=none;align=center;verticalAlign=middle;whiteSpace=wrap;rounded=0;" parent="MnokS-IEu5R2xWXdPz0--61" vertex="1">
          <mxGeometry y="85.53999999999996" width="105" height="30" as="geometry" />
        </mxCell>
        <mxCell id="12ae3frHGvqBDCMUcqmj-45" value="&lt;font style=&quot;border-color: var(--border-color);&quot; color=&quot;#23445d&quot;&gt;DMZ&lt;/font&gt;&lt;br style=&quot;border-color: var(--border-color);&quot;&gt;&lt;font style=&quot;border-color: var(--border-color);&quot; color=&quot;#003366&quot;&gt;(web、&lt;span style=&quot;border-color: var(--border-color); font-size: 12pt; font-family: Calibri, sans-serif;&quot; lang=&quot;EN-US&quot;&gt;mail&lt;/span&gt;&lt;span style=&quot;border-color: var(--border-color); font-size: 12pt; font-family: 新細明體, serif;&quot;&gt;、&lt;/span&gt;&lt;span style=&quot;border-color: var(--border-color); font-size: 12pt; font-family: Calibri, sans-serif;&quot; lang=&quot;EN-US&quot;&gt;Lync&lt;/span&gt;&lt;span style=&quot;border-color: var(--border-color); font-size: 12pt; font-family: 新細明體, serif;&quot;&gt;、客戶&lt;/span&gt;&lt;span style=&quot;border-color: var(--border-color); font-size: 12pt; font-family: Calibri, sans-serif;&quot; lang=&quot;EN-US&quot;&gt;FTP)&lt;/span&gt;&lt;/font&gt;" style="rounded=1;whiteSpace=wrap;html=1;strokeColor=none;fillColor=none;fontSize=14;fontColor=#742B21;align=center;fontStyle=1" parent="1" vertex="1">
          <mxGeometry x="1054" y="1569.69" width="370" height="19" as="geometry" />
        </mxCell>
        <mxCell id="12ae3frHGvqBDCMUcqmj-17" value="" style="group;points=[[0,0,0,0,0],[0,0.25,0,0,0],[0,0.5,0,0,0],[0,0.75,0,0,0],[0,1,0,0,0],[0.25,0,0,0,0],[0.25,1,0,0,0],[0.5,0,0,0,0],[0.5,1,0,0,0],[0.75,0,0,0,0],[0.75,1,0,0,0],[1,0,0,0,0],[1,0.25,0,0,0],[1,0.5,0,0,0],[1,0.75,0,0,0],[1,1,0,0,0]];" parent="1" vertex="1" connectable="0">
          <mxGeometry x="664" y="1781.77" width="110" height="120" as="geometry" />
        </mxCell>
        <mxCell id="12ae3frHGvqBDCMUcqmj-18" value="" style="shape=mxgraph.cisco.switches.layer_3_switch;sketch=0;html=1;pointerEvents=1;dashed=0;fillColor=#036897;strokeColor=#ffffff;strokeWidth=2;verticalLabelPosition=bottom;verticalAlign=top;align=center;outlineConnect=0;aspect=fixed;points=[[0,0.25,0,0,0],[0,0.5,0,0,0],[0,0.76,0,0,0],[0,1,0,0,0],[0.07,0,0,0,0],[0.29,0,0,0,0],[0.5,0,0,0,0],[0.5,1,0,0,0],[0.75,0,0,0,0],[0.95,0.94,0,0,0],[1,0,0,0,0],[1,0.5,0,0,0]];" parent="12ae3frHGvqBDCMUcqmj-17" vertex="1">
          <mxGeometry x="10.5" width="89" height="89" as="geometry" />
        </mxCell>
        <mxCell id="12ae3frHGvqBDCMUcqmj-19" value="Cisco 3560G&lt;br&gt;IP: 192.168.1.252" style="text;html=1;strokeColor=none;fillColor=none;align=center;verticalAlign=middle;whiteSpace=wrap;rounded=0;" parent="12ae3frHGvqBDCMUcqmj-17" vertex="1">
          <mxGeometry y="90" width="110" height="30" as="geometry" />
        </mxCell>
        <mxCell id="MnokS-IEu5R2xWXdPz0--7" value="IPS" style="text;html=1;strokeColor=none;fillColor=none;align=center;verticalAlign=middle;whiteSpace=wrap;rounded=0;" parent="1" vertex="1">
          <mxGeometry x="620" y="1591" width="105" height="30" as="geometry" />
        </mxCell>
        <mxCell id="MnokS-IEu5R2xWXdPz0--66" value="" style="rounded=0;orthogonalLoop=1;jettySize=auto;html=1;endArrow=none;endFill=0;strokeWidth=4;strokeColor=#468CAA;edgeStyle=orthogonalEdgeStyle;" parent="1" source="MnokS-IEu5R2xWXdPz0--39" target="MnokS-IEu5R2xWXdPz0--64" edge="1">
          <mxGeometry relative="1" as="geometry">
            <mxPoint x="1094.18" y="1707.995" as="sourcePoint" />
            <mxPoint x="929" y="1708" as="targetPoint" />
          </mxGeometry>
        </mxCell>
        <mxCell id="MnokS-IEu5R2xWXdPz0--64" value="" style="shape=mxgraph.cisco.switches.workgroup_switch;sketch=0;html=1;pointerEvents=1;dashed=0;fillColor=#036897;strokeColor=#ffffff;strokeWidth=2;verticalLabelPosition=bottom;verticalAlign=top;align=center;outlineConnect=0;aspect=fixed;" parent="1" vertex="1">
          <mxGeometry x="834" y="1683.5" width="100" height="49.5" as="geometry" />
        </mxCell>
        <mxCell id="12ae3frHGvqBDCMUcqmj-36" value="" style="shape=mxgraph.cisco.servers.fileserver;html=1;dashed=0;fillColor=#10739E;strokeColor=#ffffff;strokeWidth=2;verticalLabelPosition=bottom;verticalAlign=top;fontFamily=Helvetica;fontSize=36;fontColor=#FFB366" parent="1" vertex="1">
          <mxGeometry x="1130.4444444444443" y="1627.8057409555295" width="32.488888888888894" height="53.14285714285714" as="geometry" />
        </mxCell>
        <mxCell id="12ae3frHGvqBDCMUcqmj-37" value="" style="shape=mxgraph.cisco.servers.fileserver;html=1;dashed=0;fillColor=#10739E;strokeColor=#ffffff;strokeWidth=2;verticalLabelPosition=bottom;verticalAlign=top;fontFamily=Helvetica;fontSize=36;fontColor=#FFB366" parent="1" vertex="1">
          <mxGeometry x="1183.3333333333333" y="1627.8057409555295" width="32.488888888888894" height="53.14285714285714" as="geometry" />
        </mxCell>
        <mxCell id="12ae3frHGvqBDCMUcqmj-38" value="" style="shape=mxgraph.cisco.computers_and_peripherals.ibm_mainframe;html=1;dashed=0;fillColor=#10739E;strokeColor=#ffffff;strokeWidth=2;verticalLabelPosition=bottom;verticalAlign=top;fontFamily=Helvetica;fontSize=36;fontColor=#FFB366" parent="1" vertex="1">
          <mxGeometry x="1243.7777777777778" y="1624.3771695269581" width="37.777777777777786" height="60" as="geometry" />
        </mxCell>
        <mxCell id="12ae3frHGvqBDCMUcqmj-39" value="" style="shape=mxgraph.cisco.servers.storage_server;html=1;dashed=0;fillColor=#10739E;strokeColor=#ffffff;strokeWidth=2;verticalLabelPosition=bottom;verticalAlign=top;fontFamily=Helvetica;fontSize=36;fontColor=#FFB366" parent="1" vertex="1">
          <mxGeometry x="1304.2222222222222" y="1614.0914552412437" width="40.8" height="71.14285714285714" as="geometry" />
        </mxCell>
        <mxCell id="12ae3frHGvqBDCMUcqmj-41" value="" style="edgeStyle=elbowEdgeStyle;elbow=horizontal;endArrow=none;html=1;strokeColor=#468CAA;endFill=0;strokeWidth=4;rounded=1" parent="1" source="12ae3frHGvqBDCMUcqmj-36" edge="1">
          <mxGeometry width="100" height="100" relative="1" as="geometry">
            <mxPoint x="1144.8" y="1672" as="sourcePoint" />
            <mxPoint x="1145.0098765432097" y="1708.0714285714287" as="targetPoint" />
          </mxGeometry>
        </mxCell>
        <mxCell id="12ae3frHGvqBDCMUcqmj-42" value="" style="edgeStyle=elbowEdgeStyle;elbow=horizontal;endArrow=none;html=1;strokeColor=#468CAA;endFill=0;strokeWidth=4;rounded=1" parent="1" source="12ae3frHGvqBDCMUcqmj-37" edge="1">
          <mxGeometry width="100" height="100" relative="1" as="geometry">
            <mxPoint x="1199.2" y="1672" as="sourcePoint" />
            <mxPoint x="1199.4098765432102" y="1708.0714285714287" as="targetPoint" />
          </mxGeometry>
        </mxCell>
        <mxCell id="12ae3frHGvqBDCMUcqmj-43" value="" style="edgeStyle=elbowEdgeStyle;elbow=horizontal;endArrow=none;html=1;strokeColor=#468CAA;endFill=0;strokeWidth=4;rounded=1" parent="1" source="12ae3frHGvqBDCMUcqmj-38" edge="1">
          <mxGeometry width="100" height="100" relative="1" as="geometry">
            <mxPoint x="1262.6666666666667" y="1672" as="sourcePoint" />
            <mxPoint x="1262.8765432098762" y="1708.0714285714287" as="targetPoint" />
          </mxGeometry>
        </mxCell>
        <mxCell id="MnokS-IEu5R2xWXdPz0--68" value="" style="rounded=0;orthogonalLoop=1;jettySize=auto;html=1;endArrow=none;endFill=0;strokeWidth=4;strokeColor=#468CAA;exitX=0.5;exitY=1;exitDx=0;exitDy=0;exitPerimeter=0;edgeStyle=orthogonalEdgeStyle;" parent="1" source="12ae3frHGvqBDCMUcqmj-39" target="MnokS-IEu5R2xWXdPz0--39" edge="1">
          <mxGeometry relative="1" as="geometry">
            <mxPoint x="1325" y="1685" as="sourcePoint" />
            <mxPoint x="914" y="1708" as="targetPoint" />
          </mxGeometry>
        </mxCell>
        <mxCell id="MnokS-IEu5R2xWXdPz0--39" value="" style="sketch=0;points=[[0.015,0.015,0],[0.985,0.015,0],[0.985,0.985,0],[0.015,0.985,0],[0.25,0,0],[0.5,0,0],[0.75,0,0],[1,0.25,0],[1,0.5,0],[1,0.75,0],[0.75,1,0],[0.5,1,0],[0.25,1,0],[0,0.75,0],[0,0.5,0],[0,0.25,0]];verticalLabelPosition=bottom;html=1;verticalAlign=top;aspect=fixed;align=center;pointerEvents=1;shape=mxgraph.cisco19.rect;prIcon=web_application_firewall;fillColor=#FAFAFA;strokeColor=#005073;" parent="1" vertex="1">
          <mxGeometry x="974.5" y="1683" width="64" height="50" as="geometry" />
        </mxCell>
        <mxCell id="v-_Acl9JAOwQYNVZAOyV-2" value="" style="rounded=1;orthogonalLoop=1;jettySize=auto;html=1;endArrow=none;endFill=0;strokeColor=#468CAA;strokeWidth=4;" edge="1" parent="1" source="12ae3frHGvqBDCMUcqmj-69" target="v-_Acl9JAOwQYNVZAOyV-1">
          <mxGeometry relative="1" as="geometry">
            <mxPoint x="214" y="1692" as="sourcePoint" />
            <mxPoint x="306" y="1767" as="targetPoint" />
          </mxGeometry>
        </mxCell>
        <mxCell id="v-_Acl9JAOwQYNVZAOyV-1" value="MPLS" style="text;html=1;align=center;verticalAlign=middle;resizable=0;points=[];autosize=1;strokeColor=none;fillColor=none;" vertex="1" parent="1">
          <mxGeometry x="230" y="1716.47" width="60" height="30" as="geometry" />
        </mxCell>
        <mxCell id="v-_Acl9JAOwQYNVZAOyV-4" value="" style="rounded=1;orthogonalLoop=1;jettySize=auto;html=1;strokeWidth=4;strokeColor=#468CAA;endArrow=none;endFill=0;shape=link;" edge="1" parent="1" source="12ae3frHGvqBDCMUcqmj-18" target="v-_Acl9JAOwQYNVZAOyV-3">
          <mxGeometry relative="1" as="geometry">
            <mxPoint x="764" y="1826" as="sourcePoint" />
            <mxPoint x="820" y="1800" as="targetPoint" />
          </mxGeometry>
        </mxCell>
        <mxCell id="v-_Acl9JAOwQYNVZAOyV-3" value="" style="sketch=0;points=[[0.015,0.015,0],[0.985,0.015,0],[0.985,0.985,0],[0.015,0.985,0],[0.25,0,0],[0.5,0,0],[0.75,0,0],[1,0.25,0],[1,0.5,0],[1,0.75,0],[0.75,1,0],[0.5,1,0],[0.25,1,0],[0,0.75,0],[0,0.5,0],[0,0.25,0]];verticalLabelPosition=bottom;html=1;verticalAlign=top;aspect=fixed;align=center;pointerEvents=1;shape=mxgraph.cisco19.rect;prIcon=firewall;fillColor=#FAFAFA;strokeColor=#005073;container=0;" vertex="1" parent="1">
          <mxGeometry x="830" y="1786.27" width="102.4" height="80" as="geometry" />
        </mxCell>
        <mxCell id="v-_Acl9JAOwQYNVZAOyV-7" value="" style="rounded=0;orthogonalLoop=1;jettySize=auto;html=1;strokeColor=#468CAA;strokeWidth=4;endArrow=none;endFill=0;" edge="1" parent="1" target="v-_Acl9JAOwQYNVZAOyV-5">
          <mxGeometry relative="1" as="geometry">
            <mxPoint x="1044" y="2087" as="sourcePoint" />
            <mxPoint x="920" y="2050" as="targetPoint" />
          </mxGeometry>
        </mxCell>
        <mxCell id="v-_Acl9JAOwQYNVZAOyV-5" value="" style="shape=mxgraph.cisco.switches.workgroup_switch;sketch=0;html=1;pointerEvents=1;dashed=0;fillColor=#036897;strokeColor=#ffffff;strokeWidth=2;verticalLabelPosition=bottom;verticalAlign=top;align=center;outlineConnect=0;aspect=fixed;" vertex="1" parent="1">
          <mxGeometry x="994" y="1946" width="100" height="49.5" as="geometry" />
        </mxCell>
        <mxCell id="v-_Acl9JAOwQYNVZAOyV-11" value="" style="elbow=horizontal;endArrow=none;html=1;strokeColor=#468CAA;endFill=0;strokeWidth=4;rounded=1" edge="1" parent="1">
          <mxGeometry width="100" height="100" relative="1" as="geometry">
            <mxPoint x="1162" y="2085" as="sourcePoint" />
            <mxPoint x="925" y="2085" as="targetPoint" />
          </mxGeometry>
        </mxCell>
        <mxCell id="12ae3frHGvqBDCMUcqmj-3" value="" style="shape=mxgraph.cisco.servers.fileserver;html=1;dashed=0;fillColor=#10739E;strokeColor=#ffffff;strokeWidth=2;verticalLabelPosition=bottom;verticalAlign=top;fontFamily=Helvetica;fontSize=36;fontColor=#FFB366" parent="1" vertex="1">
          <mxGeometry x="904" y="2123.25" width="43" height="62" as="geometry" />
        </mxCell>
        <mxCell id="12ae3frHGvqBDCMUcqmj-4" value="" style="shape=mxgraph.cisco.servers.fileserver;html=1;dashed=0;fillColor=#10739E;strokeColor=#ffffff;strokeWidth=2;verticalLabelPosition=bottom;verticalAlign=top;fontFamily=Helvetica;fontSize=36;fontColor=#FFB366" parent="1" vertex="1">
          <mxGeometry x="974" y="2123.25" width="43" height="62" as="geometry" />
        </mxCell>
        <mxCell id="12ae3frHGvqBDCMUcqmj-5" value="" style="shape=mxgraph.cisco.computers_and_peripherals.ibm_mainframe;html=1;dashed=0;fillColor=#10739E;strokeColor=#ffffff;strokeWidth=2;verticalLabelPosition=bottom;verticalAlign=top;fontFamily=Helvetica;fontSize=36;fontColor=#FFB366" parent="1" vertex="1">
          <mxGeometry x="1054" y="2119.25" width="50" height="70" as="geometry" />
        </mxCell>
        <mxCell id="12ae3frHGvqBDCMUcqmj-6" value="" style="shape=mxgraph.cisco.servers.storage_server;html=1;dashed=0;fillColor=#10739E;strokeColor=#ffffff;strokeWidth=2;verticalLabelPosition=bottom;verticalAlign=top;fontFamily=Helvetica;fontSize=36;fontColor=#FFB366" parent="1" vertex="1">
          <mxGeometry x="1134" y="2107.25" width="54" height="83" as="geometry" />
        </mxCell>
        <mxCell id="12ae3frHGvqBDCMUcqmj-8" value="" style="elbow=horizontal;endArrow=none;html=1;strokeColor=#468CAA;endFill=0;strokeWidth=4;rounded=1" parent="1" source="12ae3frHGvqBDCMUcqmj-3" edge="1">
          <mxGeometry width="100" height="100" relative="1" as="geometry">
            <mxPoint x="923" y="2175.25" as="sourcePoint" />
            <mxPoint x="926" y="2085" as="targetPoint" />
          </mxGeometry>
        </mxCell>
        <mxCell id="12ae3frHGvqBDCMUcqmj-9" value="" style="elbow=horizontal;endArrow=none;html=1;strokeColor=#468CAA;endFill=0;strokeWidth=4;rounded=1" parent="1" source="12ae3frHGvqBDCMUcqmj-4" edge="1">
          <mxGeometry width="100" height="100" relative="1" as="geometry">
            <mxPoint x="995" y="2175.25" as="sourcePoint" />
            <mxPoint x="995" y="2085" as="targetPoint" />
          </mxGeometry>
        </mxCell>
        <mxCell id="12ae3frHGvqBDCMUcqmj-10" value="" style="elbow=horizontal;endArrow=none;html=1;strokeColor=#468CAA;endFill=0;strokeWidth=4;rounded=1" parent="1" source="12ae3frHGvqBDCMUcqmj-5" edge="1">
          <mxGeometry width="100" height="100" relative="1" as="geometry">
            <mxPoint x="1079" y="2175.25" as="sourcePoint" />
            <mxPoint x="1079" y="2085" as="targetPoint" />
          </mxGeometry>
        </mxCell>
        <mxCell id="v-_Acl9JAOwQYNVZAOyV-9" value="" style="elbow=horizontal;endArrow=none;html=1;strokeColor=#468CAA;endFill=0;strokeWidth=4;rounded=1;" edge="1" parent="1" source="12ae3frHGvqBDCMUcqmj-6">
          <mxGeometry width="100" height="100" relative="1" as="geometry">
            <mxPoint x="1171" y="2103.5" as="sourcePoint" />
            <mxPoint x="1161" y="2085" as="targetPoint" />
          </mxGeometry>
        </mxCell>
        <mxCell id="12ae3frHGvqBDCMUcqmj-12" value="&lt;font color=&quot;#23445d&quot;&gt;Servers Farm&lt;/font&gt;" style="rounded=1;whiteSpace=wrap;html=1;strokeColor=none;fillColor=none;fontSize=14;fontColor=#742B21;align=center;fontStyle=1" parent="1" vertex="1">
          <mxGeometry x="980" y="2205" width="143" height="19" as="geometry" />
        </mxCell>
      </root>
    </mxGraphModel>
  </diagram>
</mxfile>
